<svg id="Flat" height="512" viewBox="0 0 512 512" width="512" xmlns="http://www.w3.org/2000/svg"><path d="m488 256a232.146 232.146 0 0 1 -4.98 48c-22.1 105.1-115.35 184-227.02 184-128.13 0-232-103.87-232-232a231.954 231.954 0 0 1 212.41-231.18q9.69-.81 19.59-.82a235.412 235.412 0 0 1 24.32 1.26c116.7 12.16 207.68 110.82 207.68 230.74z" fill="#0093b9"/><g fill="#85bb40"><path d="m208 312-16 24 16 24 32 32h16l8 56h24l32-24 24-16v-24l24-16 16-32-16-24h-40l-24-16h-24l-24-16-32 16z"/><path d="m264 80-8 16h-16l-40-24-24 8-24 16v24l16 24 24-8-8-16v-16h24l24 16 8 32-24 8-16 24v16l8 32-24 8-8-16h-24l-24 8 8 24h16l16 8 8 16 16 8-24 16-16-16h-24l-32-24-24-40v-40l8-32-16.76-25.14a231.838 231.838 0 0 1 173.17-102.04l19.59 39.18z"/><path d="m488 256a232.146 232.146 0 0 1 -4.98 48h-27.02l-24-40 8-40-48-8-8-32v-48l-16-8-8-24-16-16-24 8-8-16v-16l-24-8-7.68-30.74c116.7 12.16 207.68 110.82 207.68 230.74z"/></g></svg>