<?xml version="1.0" encoding="iso-8859-1"?>
<!-- Generator: Adobe Illustrator 19.0.0, SVG Export Plug-In . SVG Version: 6.00 Build 0)  -->
<svg version="1.1" id="Capa_1" xmlns="http://www.w3.org/2000/svg" xmlns:xlink="http://www.w3.org/1999/xlink" x="0px" y="0px"
	 viewBox="0 0 512 512" style="enable-background:new 0 0 512 512;" xml:space="preserve">
<path style="fill:#F44336;" d="M384,128H192c-8.832,0-16,7.168-16,16v288c0,8.832,7.168,16,16,16h304c8.832,0,16-7.168,16-16V256
	C512,185.408,454.592,128,384,128z"/>
<path style="fill:#FFC107;" d="M272,0H144c-8.832,0-16,7.168-16,16v64c0,8.832,7.168,16,16,16h128c8.832,0,16-7.168,16-16V16
	C288,7.168,280.832,0,272,0z"/>
<path style="fill:#455A64;" d="M144,171.2c-8.832,0-16-7.168-16-16V16c0-8.832,7.168-16,16-16s16,7.168,16,16v139.2
	C160,164.032,152.832,171.2,144,171.2z"/>
<path style="fill:#D32F2F;" d="M192,128c-70.592,0-128,57.408-128,128v176c0,8.832,7.168,16,16,16h224c8.832,0,16-7.168,16-16V256
	C320,185.408,262.592,128,192,128z"/>
<rect x="352" y="448" style="fill:#455A64;" width="64" height="64"/>
<path style="fill:#ECEFF1;" d="M256,320H0v-80c0-8.832,7.168-16,16-16h224c8.832,0,16,7.168,16,16V320z"/>
<path style="fill:#CFD8DC;" d="M256,256v112c0,8.8-7.2,16-16,16H16c-8.8,0-16-7.2-16-16V256l128,64L256,256z"/>
<g>
</g>
<g>
</g>
<g>
</g>
<g>
</g>
<g>
</g>
<g>
</g>
<g>
</g>
<g>
</g>
<g>
</g>
<g>
</g>
<g>
</g>
<g>
</g>
<g>
</g>
<g>
</g>
<g>
</g>
</svg>
