<?xml version="1.0" encoding="iso-8859-1"?>
<!-- Generator: Adobe Illustrator 19.0.0, SVG Export Plug-In . SVG Version: 6.00 Build 0)  -->
<svg version="1.1" id="Capa_1" xmlns="http://www.w3.org/2000/svg" xmlns:xlink="http://www.w3.org/1999/xlink" x="0px" y="0px"
	 viewBox="0 0 512 512" style="enable-background:new 0 0 512 512;" xml:space="preserve">
<path style="fill:#64B5F6;" d="M0,192l246.528,156.896c2.816,2.08,6.144,3.104,9.472,3.104s6.656-1.024,9.472-3.104L512,192
	L265.6,3.2c-5.696-4.256-13.504-4.256-19.2,0L0,192z"/>
<path style="fill:#ECEFF1;" d="M416,0H96C78.368,0,64,14.368,64,32v352c0,8.832,7.168,16,16,16h352c8.832,0,16-7.168,16-16V32
	C448,14.368,433.664,0,416,0z"/>
<g>
	<path style="fill:#90A4AE;" d="M144,96h224c8.832,0,16-7.168,16-16s-7.168-16-16-16H144c-8.832,0-16,7.168-16,16S135.168,96,144,96
		z"/>
	<path style="fill:#90A4AE;" d="M368,128H144c-8.832,0-16,7.168-16,16s7.168,16,16,16h224c8.832,0,16-7.168,16-16
		S376.832,128,368,128z"/>
	<path style="fill:#90A4AE;" d="M272,192H144c-8.832,0-16,7.168-16,16s7.168,16,16,16h128c8.832,0,16-7.168,16-16
		S280.832,192,272,192z"/>
</g>
<path style="fill:#1E88E5;" d="M265.472,348.896c-2.816,2.08-6.144,3.104-9.472,3.104s-6.656-1.024-9.472-3.104L0,192v288
	c0,17.664,14.336,32,32,32h448c17.664,0,32-14.336,32-32V192L265.472,348.896z"/>
<path style="fill:#2196F3;" d="M480,512H32c-17.952,0-32-14.048-32-32c0-5.088,2.432-9.888,6.528-12.896l240-160
	c2.816-2.08,6.144-3.104,9.472-3.104s6.656,1.024,9.472,3.104l240,160C509.568,470.112,512,474.912,512,480
	C512,497.952,497.952,512,480,512z"/>
<g>
</g>
<g>
</g>
<g>
</g>
<g>
</g>
<g>
</g>
<g>
</g>
<g>
</g>
<g>
</g>
<g>
</g>
<g>
</g>
<g>
</g>
<g>
</g>
<g>
</g>
<g>
</g>
<g>
</g>
</svg>
