<?xml version="1.0" encoding="iso-8859-1"?>
<!-- Generator: Adobe Illustrator 19.0.0, SVG Export Plug-In . SVG Version: 6.00 Build 0)  -->
<svg version="1.1" id="Capa_1" xmlns="http://www.w3.org/2000/svg" xmlns:xlink="http://www.w3.org/1999/xlink" x="0px" y="0px"
	 viewBox="0 0 512 512" style="enable-background:new 0 0 512 512;" xml:space="preserve">
<path style="fill:#F44336;" d="M384,128H128c-8.832,0-16,7.168-16,16v288c0,8.832,7.168,16,16,16h368c8.832,0,16-7.168,16-16V256
	C512,185.408,454.592,128,384,128z"/>
<path style="fill:#FFC107;" d="M208,0H80c-8.832,0-16,7.168-16,16v64c0,8.832,7.168,16,16,16h128c8.832,0,16-7.168,16-16V16
	C224,7.168,216.832,0,208,0z"/>
<path style="fill:#455A64;" d="M80,171.2c-8.832,0-16-7.168-16-16V16c0-8.832,7.168-16,16-16s16,7.168,16,16v139.2
	C96,164.032,88.832,171.2,80,171.2z"/>
<path style="fill:#D32F2F;" d="M128,128C57.408,128,0,185.408,0,256v176c0,8.832,7.168,16,16,16h224c8.832,0,16-7.168,16-16V256
	C256,185.408,198.592,128,128,128z"/>
<rect x="288" y="448" style="fill:#455A64;" width="64" height="64"/>
<g>
</g>
<g>
</g>
<g>
</g>
<g>
</g>
<g>
</g>
<g>
</g>
<g>
</g>
<g>
</g>
<g>
</g>
<g>
</g>
<g>
</g>
<g>
</g>
<g>
</g>
<g>
</g>
<g>
</g>
</svg>
