<?xml version="1.0" encoding="iso-8859-1"?>
<!-- Generator: Adobe Illustrator 19.0.0, SVG Export Plug-In . SVG Version: 6.00 Build 0)  -->
<svg version="1.1" id="Capa_1" xmlns="http://www.w3.org/2000/svg" xmlns:xlink="http://www.w3.org/1999/xlink" x="0px" y="0px"
	 viewBox="0 0 512 512" style="enable-background:new 0 0 512 512;" xml:space="preserve">
<circle style="fill:#82D2FF;" cx="256" cy="256" r="256"/>
<path style="fill:#08B7FC;" d="M512,256c0,141.385-114.615,256-256,256c0-68.055,0-468.118,0-512C397.385,0,512,114.615,512,256z"/>
<g>
	<path style="fill:#F1F1F2;" d="M120.262,295.373c-14.054-48.578-1.148-102.311,35.826-139.285
		c22.099-22.099,50.104-35.972,80.987-40.12c29.917-4.015,60.857,1.749,87.125,16.239l14.49-26.27
		c-31.859-17.573-69.364-24.568-105.609-19.702c-37.458,5.031-71.417,21.851-98.207,48.64
		C89.909,179.842,74.311,245.261,91.621,304.31l-24.838-11.059l-12.202,27.406l72.827,32.426l32.424-72.829l-27.406-12.201
		L120.262,295.373z"/>
	<path style="fill:#F1F1F2;" d="M457.419,191.343l-72.827-32.426l-32.424,72.829l27.406,12.201l12.164-27.321
		c14.054,48.578,1.148,102.311-35.826,139.285c-22.099,22.099-50.104,35.972-80.987,40.12c-29.918,4.017-60.857-1.749-87.125-16.239
		l-14.49,26.27c25.25,13.928,54.044,21.212,82.949,21.212c7.566,0,15.141-0.5,22.66-1.51c37.458-5.031,71.417-21.851,98.207-48.64
		c44.967-44.967,60.564-110.386,43.254-169.435l24.838,11.059L457.419,191.343z"/>
</g>
<g>
	<path style="fill:#E6E6E6;" d="M324.201,132.207l14.49-26.27C313.517,92.052,284.817,84.777,256,84.734v29.994
		C279.777,114.763,303.447,120.759,324.201,132.207z"/>
	<path style="fill:#E6E6E6;" d="M457.419,191.343l-72.827-32.426l-32.424,72.829l27.406,12.201l12.164-27.321
		c14.054,48.578,1.148,102.311-35.826,139.285c-22.099,22.099-50.104,35.972-80.987,40.12c-6.281,0.843-12.607,1.25-18.925,1.24
		v29.998c0.086,0,0.172,0.004,0.258,0.004c7.566,0,15.141-0.5,22.66-1.51c37.458-5.031,71.417-21.851,98.207-48.64
		c44.967-44.967,60.564-110.386,43.254-169.435l24.838,11.059L457.419,191.343z"/>
</g>
<g>
</g>
<g>
</g>
<g>
</g>
<g>
</g>
<g>
</g>
<g>
</g>
<g>
</g>
<g>
</g>
<g>
</g>
<g>
</g>
<g>
</g>
<g>
</g>
<g>
</g>
<g>
</g>
<g>
</g>
</svg>
